<svg xmlns="http://www.w3.org/2000/svg" viewBox="0 0 128 128"><circle cx="64" cy="64" r="60" fill="#382673"/><circle cx="64" cy="64" r="50" fill="#473080"/><path fill="#fec632" d="M47 34h34v24H47z"/><circle cx="64" cy="76" r="33.5" fill="#ffde39"/><circle cx="64" cy="76" r="27.2" fill="#fec632"/><path fill="#f9a74e" d="M37.7 77.8c0-15 12.2-27.2 27.2-27.2 10.3 0 19.2 5.7 23.8 14.1C84.4 55.4 75 48.8 64 48.8 49 48.8 36.8 61 36.8 76c0 4.7 1.2 9.2 3.4 13.1-1.6-3.5-2.5-7.3-2.5-11.3z"/><circle cx="64" cy="76" r="22.6" fill="#ffde39"/><path fill="#f9a74e" d="M47 38h34v3H47z"/><path fill="#fff" d="m64 84.2 6.9 3.6c1 .5 2.2-.3 2-1.5l-1.3-7.7 5.6-5.4c.8-.8.4-2.2-.8-2.4l-7.7-1.1-3.4-7c-.5-1-2-1-2.5 0l-3.4 7-7.7 1.1c-1.1.2-1.6 1.6-.8 2.4l5.6 5.4-1.3 7.7c-.2 1.1 1 2 2 1.5l6.8-3.6z"/><path fill="#d44a90" d="M36.5 10.6 49 35h30L63.1 4c-9.6.1-18.6 2.5-26.6 6.6z"/><path fill="#a72973" d="m61.9 4.1-14.4 28L49 35h27l1.5-2.9L63.1 4c-.4 0-.8 0-1.2.1z"/><path fill="#ffde39" d="M80.1 40H47.9c-2.2 0-3.9-1.8-3.9-3.9V36c0-2.2 1.8-3.9 3.9-3.9H80c2.2 0 3.9 1.8 3.9 3.9v.1c.1 2.1-1.7 3.9-3.8 3.9z"/><path fill="#473080" d="M47.9 37c-.5 0-.9-.4-.9-.9V36c0-.5.4-.9.9-.9H80c.5 0 .9.4.9.9v.1c0 .5-.4.9-.9.9H47.9z"/><path fill="#f15a9e" d="M49 35h30l12.5-24.4c-8-4.1-17-6.5-26.6-6.6L49 35z"/></svg>