<svg xmlns="http://www.w3.org/2000/svg" width="512" height="512" enable-background="new 0 0 512 512" viewBox="0 0 512 512"><linearGradient id="a" x1="253.868" x2="253.868" y1="377.063" y2="234.434" gradientUnits="userSpaceOnUse"><stop offset="0" stop-color="#ec8d4d"/><stop offset=".059" stop-color="#ec8b4d"/><stop offset="1" stop-color="#ec6652"/></linearGradient><path fill="url(#a)" d="M361.217,234.433v4.955H132.696v106.298c0,17.329,14.049,31.378,31.379,31.378h20.543v-31.128
		c0,16.008,11.989,29.206,27.478,31.128h82.129c15.488-1.922,27.479-15.12,27.479-31.128v31.128h8.135
		c17.33,0,31.379-14.049,31.379-31.378v30.378c7.634,0,13.822-6.188,13.822-13.822V234.433H361.217z"/><path fill="#F7D1BF" d="M207.192,420.302L207.192,420.302c20.501-29.661,22.715-64.861,22.715-100.917v-21.661h52.186v21.661
		c0,36.056,2.214,71.256,22.715,100.917l0,0H207.192z"/><linearGradient id="b" x1="255.43" x2="255.43" y1="352.864" y2="297.724" gradientUnits="userSpaceOnUse"><stop offset="0" stop-color="#f7d1bf"/><stop offset=".12" stop-color="#f2c0ac"/><stop offset=".354" stop-color="#eaa48e"/><stop offset=".582" stop-color="#e58f78"/><stop offset=".801" stop-color="#e1836a"/><stop offset="1" stop-color="#e07f66"/></linearGradient><path fill="url(#b)" d="M282.098,321.753c-0.002-0.789-0.005-1.578-0.005-2.368v-21.661h-52.186v21.661
		c0,11.292-0.218,22.499-1.146,33.479L282.098,321.753z"/><linearGradient id="c" x1="160.169" x2="123.359" y1="211.929" y2="211.929" gradientUnits="userSpaceOnUse"><stop offset="0" stop-color="#faa399"/><stop offset=".275" stop-color="#faa99e"/><stop offset=".637" stop-color="#f9b9ab"/><stop offset="1" stop-color="#f7d1bf"/></linearGradient><path fill="url(#c)" d="M152.144,240.279L152.144,240.279c-15.896,0-28.784-12.887-28.784-28.784V198.4
		c0-0.317,0.008-0.632,0.024-0.946c0.666-13.147,17.224-18.679,26.055-8.916l0,0c6.906,7.636,10.73,17.565,10.73,27.861v15.854
		C160.169,236.687,156.576,240.279,152.144,240.279z"/><linearGradient id="d" x1="351.831" x2="388.641" y1="211.929" y2="211.929" gradientUnits="userSpaceOnUse"><stop offset="0" stop-color="#faa399"/><stop offset=".275" stop-color="#faa99e"/><stop offset=".637" stop-color="#f9b9ab"/><stop offset="1" stop-color="#f7d1bf"/></linearGradient><path fill="url(#d)" d="M359.856,240.279L359.856,240.279c15.897,0,28.784-12.887,28.784-28.784V198.4
		c0-0.317-0.008-0.632-0.023-0.946c-0.667-13.147-17.225-18.679-26.055-8.916l0,0c-6.907,7.636-10.731,17.565-10.731,27.861v15.854
		C351.831,236.687,355.424,240.279,359.856,240.279z"/><circle cx="256" cy="213.574" r="109.753" fill="#F7D1BF"/><path fill="#FABAA6" d="M256,103.821c-60.614,0-109.753,49.138-109.753,109.753c0,22.627,6.85,43.652,18.585,61.122v-65.309h32.338
		v-23.396c0,12.922,10.475,23.396,23.396,23.396h0.84h84.188v-23.396c0,12.922,10.475,23.396,23.396,23.396h0.84h35.836
		C363.464,150.714,315.213,103.821,256,103.821z"/><linearGradient id="e" x1="133.043" x2="378.957" y1="239.311" y2="239.311" gradientUnits="userSpaceOnUse"><stop offset="0" stop-color="#fcc07e"/><stop offset="1" stop-color="#ec6652"/></linearGradient><path fill="url(#e)" d="M256,88.821c-63.869,0-116.424,48.428-122.957,110.566v158.624c0,17.557,14.232,31.79,31.789,31.79
		l0,0V199.388h32.338v-23.396c0,12.922,10.475,23.396,23.396,23.396h0.84h84.188v-23.396c0,12.922,10.475,23.396,23.396,23.396h0.84
		h49.127C372.424,137.25,319.869,88.821,256,88.821z"/><linearGradient id="f" x1="355.469" x2="156.986" y1="99.282" y2="99.282" gradientUnits="userSpaceOnUse"><stop offset="0" stop-color="#185e8d"/><stop offset="1" stop-color="#133d54"/></linearGradient><polygon fill="url(#f)" points="355.469 139.227 256.227 150.583 156.985 139.227 156.985 47.981 355.469 47.981"/><linearGradient id="g" x1="115.951" x2="396.049" y1="52.465" y2="52.465" gradientUnits="userSpaceOnUse"><stop offset="0" stop-color="#1f6f9b"/><stop offset=".249" stop-color="#21759d"/><stop offset=".577" stop-color="#2885a5"/><stop offset=".947" stop-color="#32a0b0"/><stop offset="1" stop-color="#34a5b2"/></linearGradient><rect width="280.098" height="15.46" x="115.951" y="44.735" fill="url(#g)"/><linearGradient id="h" x1="135" x2="135" y1="60.195" y2="337.439" gradientUnits="userSpaceOnUse"><stop offset="0" stop-color="#f3ca66"/><stop offset=".045" stop-color="#f4cc6c"/><stop offset=".264" stop-color="#f8d486"/><stop offset=".491" stop-color="#fbda98"/><stop offset=".73" stop-color="#fcdea2"/><stop offset="1" stop-color="#fddfa6"/></linearGradient><path fill="url(#h)" d="M137.257,237.267V60.195h-4.513v177.072c-4.56,1.029-7.969,5.096-7.969,9.966v90.205h20.449v-90.205
		C145.225,242.363,141.816,238.296,137.257,237.267z"/><rect width="20.449" height="2" x="124.775" y="263.125" fill="#EC8959"/><rect width="2" height="73.313" x="126.696" y="264.125" fill="#EC8959"/><rect width="2" height="73.313" x="131.696" y="264.125" fill="#EC8959"/><rect width="2" height="73.313" x="136.696" y="264.125" fill="#EC8959"/><rect width="2" height="73.313" x="141.696" y="264.125" fill="#EC8959"/><linearGradient id="i" x1="407.224" x2="104.776" y1="425.081" y2="425.081" gradientUnits="userSpaceOnUse"><stop offset="0" stop-color="#185e8d"/><stop offset="1" stop-color="#133d54"/></linearGradient><path fill="url(#i)" d="M407.224,467.265H104.776l0,0c0-46.594,37.771-84.366,84.365-84.366h133.717
		C369.452,382.898,407.224,420.671,407.224,467.265L407.224,467.265z"/><linearGradient id="j" x1="347.613" x2="164.387" y1="424.935" y2="424.935" gradientUnits="userSpaceOnUse"><stop offset="0" stop-color="#445258"/><stop offset="1" stop-color="#253338"/></linearGradient><path fill="url(#j)" d="M223.034,467.265h65.933l57.861-78.32c1.939-2.625,0.065-6.341-3.199-6.341H168.371
		c-3.265,0-5.139,3.716-3.199,6.341L223.034,467.265z"/><linearGradient id="k" x1="197.615" x2="314.385" y1="422.117" y2="422.117" gradientUnits="userSpaceOnUse"><stop offset="0" stop-color="#fa5"/><stop offset=".199" stop-color="#ffad5a"/><stop offset=".441" stop-color="#ffb769"/><stop offset=".705" stop-color="#fec782"/><stop offset=".984" stop-color="#fddea4"/><stop offset="1" stop-color="#fddfa6"/></linearGradient><polygon fill="url(#k)" points="314.385 382.604 256 461.632 197.615 382.604"/><polygon fill="#FFF" points="295.164 382.604 256 435.615 216.836 382.604"/><linearGradient id="l" x1="253.867" x2="216.836" y1="368.308" y2="368.308" gradientUnits="userSpaceOnUse"><stop offset="0" stop-color="#445258"/><stop offset="1" stop-color="#253338"/></linearGradient><path fill="url(#l)" d="M225.277,354.013h-8.441v28.591h37.031l0,0C253.867,366.813,241.067,354.013,225.277,354.013z"/><linearGradient id="m" x1="290.9" x2="253.868" y1="368.308" y2="368.308" gradientUnits="userSpaceOnUse"><stop offset="0" stop-color="#445258"/><stop offset="1" stop-color="#253338"/></linearGradient><path fill="url(#m)" d="M282.459,354.013h8.441v28.591h-37.033l0,0C253.867,366.813,266.668,354.013,282.459,354.013z"/><radialGradient id="n" cx="199.048" cy="256.134" r="20.43" gradientUnits="userSpaceOnUse"><stop offset="0" stop-color="#faa399"/><stop offset=".42" stop-color="#faa59b"/><stop offset=".646" stop-color="#f9ada1"/><stop offset=".826" stop-color="#f8bbad"/><stop offset=".98" stop-color="#f7cebc"/><stop offset="1" stop-color="#f7d1bf"/></radialGradient><circle cx="199.048" cy="256.134" r="20.43" fill="url(#n)"/><radialGradient id="o" cx="312.951" cy="256.134" r="20.43" gradientUnits="userSpaceOnUse"><stop offset="0" stop-color="#faa399"/><stop offset=".42" stop-color="#faa59b"/><stop offset=".646" stop-color="#f9ada1"/><stop offset=".826" stop-color="#f8bbad"/><stop offset=".98" stop-color="#f7cebc"/><stop offset="1" stop-color="#f7d1bf"/></radialGradient><circle cx="312.952" cy="256.134" r="20.43" fill="url(#o)"/><circle cx="214.507" cy="233.867" r="7.602" fill="#6C5A5C"/><circle cx="297.493" cy="233.867" r="7.602" fill="#6C5A5C"/><linearGradient id="p" x1="256" x2="256" y1="260.077" y2="234.592" gradientUnits="userSpaceOnUse"><stop offset="0" stop-color="#fa8f99"/><stop offset="1" stop-color="#fab099"/></linearGradient><path fill="url(#p)" d="M256,260.077L256,260.077c-3.587,0-6.522-2.936-6.522-6.522v-12.44
		c0-3.587,2.936-6.523,6.522-6.523l0,0c3.588,0,6.523,2.936,6.523,6.523v12.44C262.523,257.142,259.588,260.077,256,260.077z"/><path fill="#F28584" d="M255.863,286.148c-7.533,0-15.067-2.868-20.803-8.603c-0.391-0.391-0.391-1.024,0-1.415
		s1.023-0.391,1.414,0c10.691,10.691,28.086,10.69,38.777,0.001l0.273-0.274c0.391-0.391,1.023-0.391,1.414,0s0.391,1.023,0,1.414
		l-0.273,0.274C270.931,283.28,263.396,286.148,255.863,286.148z"/><path fill="#F28584" d="M229.229 282.556c-.4 0-.771-.258-.896-.66-.153-.494.123-1.021.616-1.175.339-.106 8.281-2.69 7.861-11.077-.025-.518.373-.959.891-.984.509-.016.958.373.984.891.493 9.861-9.084 12.934-9.181 12.964C229.414 282.542 229.32 282.556 229.229 282.556zM283.045 282.556c-.092 0-.186-.014-.277-.042-.097-.03-9.674-3.103-9.182-12.964.027-.518.468-.904.984-.891.518.025.917.467.891.984-.419 8.387 7.523 10.971 7.862 11.077.493.154.771.681.616 1.175C283.814 282.298 283.444 282.556 283.045 282.556z"/><path fill="#6C5A5C" d="M197.08 218.413c-.258 0-.516-.099-.711-.297-.389-.393-.385-1.026.009-1.414.364-.36 9.062-8.823 20.85-9.732.558-.042 1.032.369 1.074.92.043.551-.369 1.032-.92 1.074-11.066.854-19.515 9.078-19.599 9.161C197.588 218.316 197.334 218.413 197.08 218.413zM315.115 218.412c-.254 0-.508-.096-.702-.288-.084-.083-8.558-8.31-19.599-9.161-.551-.042-.963-.523-.92-1.074.042-.551.516-.964 1.074-.92 11.787.909 20.484 9.372 20.85 9.732.393.388.396 1.02.009 1.413C315.631 218.313 315.373 218.412 315.115 218.412z"/></svg>