<svg xmlns="http://www.w3.org/2000/svg" width="400" height="400"><path fill="#CCE9FF" d="M287.04 206.56v101.68c0 5.37-1.771 10.34-4.76 14.34-4.38 5.86-11.36 9.65-19.23 9.65H57.66c-7.88 0-14.87-3.79-19.24-9.65-.32-.43-.63-.87-.92-1.33a23.851 23.851 0 0 1-3.84-13.01V102.849c0-13.26 10.74-23.989 24-23.989h205.39c8.86 0 16.601 4.8 20.75 11.95l-33.02 33.029-73.08 73.09-53.23-53.229c-9.4-9.4-28.19-9.4-37.57 0l-21.92 21.91c-3.33 3.33-5.48 7.84-6.44 12.689-1.78 8.83.37 18.82 6.44 24.891l93.93 93.93c9.39 9.39 28.17 9.39 37.57 0l21.92-21.92 68.64-68.64z"/><path fill="#2A94F4" d="m359.29 134.299-72.25 72.261-68.64 68.64-21.92 21.92c-9.4 9.39-28.18 9.39-37.57 0l-93.93-93.93c-6.07-6.07-8.22-16.061-6.44-24.891.96-4.85 3.11-9.359 6.44-12.689L86.9 143.7c9.38-9.4 28.17-9.4 37.57 0l53.23 53.229 73.08-73.09L283.8 90.81l16-15.99c9.4-9.4 28.19-9.4 37.57 0l21.92 21.91c2.56 2.569 4.43 5.83 5.59 9.409 3.11 9.54 1.24 21.33-5.59 28.16z"/></svg>